<svg width="21" height="21" viewBox="0 0 21 21" fill="none" xmlns="http://www.w3.org/2000/svg">
<path d="M12.0137 13.3479C12.297 13.3479 12.543 13.2439 12.7517 13.0359C12.9603 12.8279 13.0643 12.5819 13.0637 12.2979C13.063 12.0139 12.959 11.7682 12.7517 11.5609C12.5443 11.3536 12.2983 11.2492 12.0137 11.2479C11.729 11.2466 11.4833 11.3509 11.2767 11.5609C11.07 11.7709 10.9657 12.0166 10.9637 12.2979C10.9617 12.5792 11.066 12.8252 11.2767 13.0359C11.4873 13.2466 11.733 13.3506 12.0137 13.3479ZM11.2637 10.1479H12.7637C12.7637 9.66457 12.8137 9.31057 12.9137 9.0859C13.0137 8.86123 13.247 8.56523 13.6137 8.1979C14.1137 7.6979 14.447 7.2939 14.6137 6.9859C14.7803 6.6779 14.8637 6.31523 14.8637 5.8979C14.8637 5.1479 14.601 4.53557 14.0757 4.0609C13.5503 3.58623 12.863 3.34857 12.0137 3.3479C11.3303 3.3479 10.7347 3.53957 10.2267 3.9229C9.71867 4.30623 9.36434 4.81457 9.16367 5.4479L10.5137 5.9979C10.6637 5.58123 10.868 5.2689 11.1267 5.0609C11.3853 4.8529 11.681 4.74857 12.0137 4.7479C12.4137 4.7479 12.7387 4.86057 12.9887 5.0859C13.2387 5.31123 13.3637 5.61523 13.3637 5.9979C13.3637 6.23123 13.297 6.45223 13.1637 6.6609C13.0303 6.86957 12.797 7.1319 12.4637 7.4479C11.9137 7.93123 11.5763 8.31057 11.4517 8.5859C11.327 8.86123 11.2643 9.3819 11.2637 10.1479ZM6.01367 16.3479C5.46367 16.3479 4.993 16.1522 4.60167 15.7609C4.21034 15.3696 4.01434 14.8986 4.01367 14.3479V2.3479C4.01367 1.7979 4.20967 1.32723 4.60167 0.9359C4.99367 0.544567 5.46434 0.348567 6.01367 0.3479H18.0137C18.5637 0.3479 19.0347 0.5439 19.4267 0.9359C19.8187 1.3279 20.0143 1.79857 20.0137 2.3479V14.3479C20.0137 14.8979 19.818 15.3689 19.4267 15.7609C19.0353 16.1529 18.5643 16.3486 18.0137 16.3479H6.01367ZM6.01367 14.3479H18.0137V2.3479H6.01367V14.3479ZM2.01367 20.3479C1.46367 20.3479 0.993005 20.1522 0.601672 19.7609C0.210339 19.3696 0.0143385 18.8986 0.0136719 18.3479V4.3479H2.01367V18.3479H16.0137V20.3479H2.01367Z" fill="#6D778A"/>
</svg>
