<svg width="16" height="16" viewBox="0 0 16 16" fill="none" xmlns="http://www.w3.org/2000/svg">
<path fill-rule="evenodd" clip-rule="evenodd" d="M7.9996 10.1221L13.3026 15.4251C13.584 15.7065 13.9657 15.8646 14.3636 15.8646C14.7616 15.8646 15.1432 15.7065 15.4246 15.4251C15.706 15.1437 15.8641 14.7621 15.8641 14.3641C15.8641 13.9662 15.706 13.5845 15.4246 13.3031L10.1196 8.00011L15.4236 2.69711C15.5629 2.55778 15.6733 2.39238 15.7487 2.21036C15.824 2.02834 15.8628 1.83326 15.8627 1.63626C15.8627 1.43926 15.8238 1.2442 15.7484 1.06221C15.673 0.880224 15.5624 0.714877 15.4231 0.57561C15.2838 0.436343 15.1184 0.325884 14.9364 0.250538C14.7543 0.175193 14.5592 0.136437 14.3623 0.136483C14.1653 0.13653 13.9702 0.175377 13.7882 0.250809C13.6062 0.32624 13.4409 0.436778 13.3016 0.57611L7.9996 5.87911L2.6966 0.57611C2.5583 0.432781 2.39284 0.318431 2.20987 0.239733C2.0269 0.161034 1.83009 0.119563 1.63092 0.117739C1.43176 0.115915 1.23422 0.153774 1.04984 0.229109C0.865462 0.304443 0.697932 0.415744 0.557027 0.556516C0.416123 0.697288 0.304664 0.864713 0.229156 1.04902C0.153648 1.23333 0.115602 1.43083 0.117238 1.63C0.118874 1.82917 0.16016 2.02602 0.238686 2.20906C0.317212 2.3921 0.431406 2.55767 0.574604 2.69611L5.8796 8.00011L0.575604 13.3041C0.432406 13.4425 0.318212 13.6081 0.239686 13.7912C0.16116 13.9742 0.119874 14.1711 0.118238 14.3702C0.116602 14.5694 0.154648 14.7669 0.230156 14.9512C0.305664 15.1355 0.417122 15.3029 0.558027 15.4437C0.698932 15.5845 0.866462 15.6958 1.05084 15.7711C1.23522 15.8464 1.43276 15.8843 1.63192 15.8825C1.83109 15.8807 2.0279 15.8392 2.21087 15.7605C2.39384 15.6818 2.5593 15.5674 2.6976 15.4241L7.9996 10.1221Z" fill="white"/>
</svg>
